PathFileType	4	(X/Y/Z)	C:/Users/beibeiliu/ov580/test_trc/User3\sequence.37_training_dense_right.trc
DataRate	CameraRate	NumFrames	NumMarkers	Units	OrigDataRate	OrigDataStartFrame	OrigNumFrames
120	120	14	19	mm	120	172	274
Frame#	Time	ThumbCMC			ThumbMCP			ThumbIP			ThumbTip			IndexMCP			IndexPIP			IndexTip			MiddleMCP			MiddlePIP			MiddleTip			RingMCP			RingPIP			RingTip			PinkyMCP			PinkyPIP			PinkyTip			BackHand1			BackHand2			BackHand3	
		X0	Y0	Z0	X1	Y1	Z1	X2	Y2	Z2	X3	Y3	Z3	X4	Y4	Z4	X5	Y5	Z5	X6	Y6	Z6	X7	Y7	Z7	X8	Y8	Z8	X9	Y9	Z9	X10	Y10	Z10	X11	Y11	Z11	X12	Y12	Z12	X13	Y13	Z13	X14	Y14	Z14	X15	Y15	Z15	X16	Y16	Z16	X17	Y17	Z17	X18	Y18	Z18	
171	1.425	70.9177	-24.1766	18.4789	53.3317	-38.5973	1.07483	43.3772	-56.0158	-24.6944	49.7567	-74.2956	-39.0791	77.4989	-36.5908	-58.0527	64.6231	-66.5426	-63.1932	63.9476	-71.8646	-29.0196	94.1421	-53.2013	-61.8774	82.8019	-82.4712	-53.529	86.3384	-74.7037	-14.8041	113.038	-62.8839	-48.9788	96.6225	-88.4861	-37.5534	98.8648	-75.2641	-4.82701	124.286	-73.0781	-39.4633	110.229	-90.8829	-26.7209	106.318	-75.522	4.36842	130.673	-23.04	-12.2002	137.873	-18.6227	15.9875	102.767	-6.09351	6.64082	
172	1.43333	74.1676	-10.8976	21.6106	51.9492	-21.0854	2.97874	35.8674	-33.9911	-22.9144	45.0558	-51.6765	-42.2111	75.3555	-14.2814	-53.707	58.2118	-43.6167	-60.8081	60.6895	-52.5778	-26.9855	89.6462	-30.0943	-59.9624	73.9805	-60.1178	-54.455	82.9415	-58.522	-18.2546	106.987	-45.1483	-51.0923	95.6263	-70.5072	-43.2235	92.3763	-60.7526	-9.62966	126.191	-55.8413	-38.9342	106.415	-75.9331	-27.1282	103.037	-60.8913	-0.0300202	131.474	-10.1407	-10.9377	137.438	-7.88734	19.0589	108.317	5.20915	10.4809	
173	1.44167	76.5318	3.15023	26.7717	53.4484	-2.60986	6.20971	34.9785	-9.42051	-20.2552	40.3268	-26.454	-43.6404	74.2232	8.13894	-52.5791	60.0287	-18.4485	-62.0367	62.7617	-33.3378	-30.5995	92.9282	-7.07815	-59.2235	73.7593	-34.6936	-59.6203	80.8426	-38.2988	-19.8613	107.62	-21.3333	-50.795	90.8621	-46.8334	-46.8024	92.3664	-42.564	-11.8983	124.002	-35.4119	-40.9306	103.01	-53.5165	-35.1919	99.0909	-48.1802	-3.20492	131.74	4.31244	-4.50062	140.708	3.90833	25.0292	105.133	20.8644	15.8018	
174	1.45	75.8749	15.4889	32.766	52.9268	14.436	7.11559	37.8444	10.168	-14.5408	39.1296	-2.56027	-42.0734	76.8749	31.3072	-47.1099	59.8886	7.9884	-59.6681	62.6072	-12.0303	-30.0705	96.5636	17.6931	-54.5239	77.9853	-7.23027	-63.0514	77.0266	-19.8353	-23.1916	109.805	1.78444	-50.0764	92.0325	-26.9319	-48.405	94.0868	-27.5917	-15.2797	122.087	-14.0098	-42.0354	103.58	-33.8066	-38.4185	99.8938	-30.8092	-6.79207	134.339	21.3543	-0.621471	142.684	11.4216	29.2939	108.578	30.7438	23.5257	
175	1.45833	75.5809	25.2223	34.3734	52.404	27.7142	10.5267	36.9026	27.9518	-14.9659	44.4755	16.6819	-36.8238	80.8353	50.003	-39.5999	62.81	29.2377	-58.1317	60.9112	8.30734	-29.0385	95.6353	39.6402	-49.2844	76.3258	11.5682	-60.7628	81.6767	-4.38671	-28.4667	110.312	20.9696	-49.4602	92.9347	-4.22917	-52.1824	92.2674	-11.6911	-22.7822	121.372	3.48111	-44.1646	102.051	-14.2192	-39.5584	101.373	-20.8281	-10.2855	137.551	31.5978	5.40614	139.032	20.2699	33.8139	110.627	42.3985	27.2048	
176	1.46667	76.0783	32.2099	37.2469	53.2252	38.8016	13.7273	38.4781	41.8488	-14.6748	50.5764	32.2486	-36.8599	83.5838	65.6184	-35.7165	62.7531	48.4526	-53.3621	60.3852	25.5077	-30.2528	97.7173	56.0472	-47.1551	79.0592	32.1735	-59.245	82.8879	10.856	-27.3405	108.623	40.8424	-45.8714	93.9631	18.1442	-54.4919	93.5087	2.56389	-20.8397	123.128	21.8856	-40.7994	107.219	-0.41002	-42.4313	104.645	-7.45618	-13.5142	135.396	42.8338	5.86296	140.348	27.7103	37.4532	108.763	48.1815	31.9349	
177	1.475	73.652	37.1999	40.5207	50.622	45.1361	15.6923	45.8513	51.2175	-15.1621	51.442	44.396	-40.1524	80.9603	81.9909	-27.1865	66.955	61.7287	-48.537	64.1627	39.162	-26.9208	101.422	71.1621	-37.2403	78.5848	49.2663	-54.6543	82.6312	24.0495	-22.6959	115.434	53.6284	-40.9912	97.9583	31.8782	-53.1407	93.4532	15.6242	-22.4825	127.157	34.7932	-37.5569	105.905	19.0623	-42.9891	102.79	10.2218	-12.1523	135.702	50.2117	16.3047	141.268	32.0938	40.5163	108.548	54.9107	40.1381	
178	1.48333	76.019	41.8822	41.0602	52.5155	54.278	13.4527	43.2279	60.8609	-14.7259	58.6884	55.7709	-39.2581	83.8051	92.3641	-17.3421	67.815	78.407	-43.5754	65.0864	50.5968	-21.7208	100.986	83.2471	-31.131	81.3614	65.8038	-51.4059	83.713	36.5698	-19.4164	112.332	68.1037	-37.1401	100.056	45.5084	-50.7676	95.2532	26.9393	-22.9869	125.928	50.0419	-32.5502	105.69	32.9138	-41.9063	103.366	17.534	-15.5479	134.665	57.0254	17.6322	141.376	37.4022	40.0139	110.46	58.1782	40.3302	
179	1.49167	74.5828	49.3796	40.4066	54.9588	59.2736	15.9999	49.1368	66.0156	-10.7136	63.7925	63.1788	-34.3262	87.5596	100.943	-17.8397	65.8151	87.6264	-36.3985	67.7547	60.4038	-21.7639	103.395	92.811	-25.9069	85.6843	75.5819	-48.4049	84.2509	46.3085	-21.0981	116.933	75.7608	-33.7841	95.5632	56.8768	-46.4468	93.6569	37.4288	-18.4123	123.028	59.113	-33.3915	105.295	43.7225	-40.8051	102.914	26.3497	-13.3362	137.609	59.8133	19.9043	140.897	36.7986	41.2166	110.766	62.1399	45.05	
180	1.5	75.9123	50.4249	40.8762	53.1441	62.1043	17.7695	51.3001	73.564	-12.9738	64.3832	70.4843	-37.6807	89.7846	104.459	-8.83161	69.6205	91.4635	-34.052	65.8138	65.3279	-13.9309	102.986	98.5833	-23.9545	82.9582	82.8366	-42.7459	84.744	52.6104	-17.2718	114.216	84.0848	-26.883	96.5452	61.8874	-44.2465	92.7641	43.6346	-19.8637	127.307	64.92	-28.7111	105.157	49.8944	-40.448	103.096	32.0808	-15.1379	139.652	65.6125	19.7452	141.1	38.0932	44.0613	111.757	63.7929	48.0695	
181	1.50833	74.1333	53.8903	39.4425	54.1809	67.7147	15.0089	50.5349	77.1262	-11.8337	67.4703	75.2814	-34.9059	87.8499	109.996	-6.00637	68.8775	97.0178	-30.1145	67.6622	71.2856	-13.1263	106.61	102.766	-19.6936	84.9899	88.9425	-41.8648	81.558	58.1681	-14.9974	119.475	86.8325	-26.8328	98.8909	69.4105	-44.4105	89.5094	50.4438	-19.9143	126.905	69.2286	-31.8337	104.613	56.0344	-39.363	98.286	37.4758	-19.8508	135.303	65.7902	25.526	137.828	41.777	42.7626	110.595	62.9844	46.8064	
182	1.51667	71.5291	53.7033	38.6503	54.8465	66.1448	14.0565	52.0451	82.9641	-18.4961	71.7539	77.7649	-39.4242	87.3811	113.462	-10.039	71.2495	100.799	-34.0849	69.7688	73.0863	-19.6601	106.212	105.484	-18.8193	89.5948	95.2166	-45.5278	80.5864	59.6694	-21.7694	118.282	90.2203	-24.9001	99.8484	74.1359	-48.9473	93.145	48.9984	-26.9037	127.522	72.3987	-33.2291	105.907	59.6215	-43.0084	97.0323	39.1979	-26.9456	136.418	68.8085	21.9991	138.481	38.1283	39.7561	109.222	65.6703	47.3275	
183	1.525	75.0846	46.4011	29.5684	56.9628	59.1114	2.66618	52.8885	70.0673	-26.3723	73.2194	65.4022	-49.2432	93.1645	101.579	-19.4031	74.4567	95.6756	-47.5404	67.9825	65.5398	-37.4526	112.214	96.5287	-31.3555	95.3857	86.9944	-60.105	88.0078	51.2288	-43.7455	123.561	82.5739	-38.519	107.154	66.3848	-60.6248	95.5438	41.4606	-45.3989	136.644	59.7611	-37.0533	117.291	49.1028	-55.1616	102.078	27.6452	-37.7084	137.254	61.5913	16.0815	138.109	35.6281	37.8902	106.916	62.697	37.3163	
184	1.53333	73.1498	29.5487	9.99369	61.0136	30.8261	-18.7702	56.4335	30.9627	-49.6117	74.8679	23.2605	-67.4384	94.0763	70.3516	-52.1767	87.1155	59.9918	-83.2414	80.3991	30.0605	-78.7499	119.337	67.3587	-58.0192	114.608	58.385	-87.0229	99.7073	18.203	-82.6625	132.03	52.0312	-53.9608	124.524	40.211	-83.3275	113.55	8.98702	-76.9163	144.807	32.7941	-45.9702	140.164	19.0887	-71.9	124.49	-4.74824	-64.5222	134.398	43.9148	-0.629521	134.484	33.1964	26.0821	104.389	47.4553	14.7736	
